STARTFONT 2.1
COMMENT MZ-700 like ASCII font
COMMENT 8x8 dot bitmap font
COMMENT not resize. original size.
FONT -Pet2015bdfascii-Fixed-Medium-R-Normal--8-80-75-75-M-80-ISO10646-1
SIZE 8 75 75
FONTBOUNDINGBOX 8 8 0 0
STARTPROPERTIES 19
FONT_ASCENT 8
FONT_DESCENT 0
DEFAULT_CHAR 32
COPYRIGHT "mieki256"
FONTNAME_REGISTRY ""
FOUNDRY "Pet2015bdfascii"
FAMILY_NAME "Fixed"
WEIGHT_NAME "Medium"
SLANT "R"
SETWIDTH_NAME "Normal"
ADD_STYLE_NAME ""
PIXEL_SIZE 8
POINT_SIZE 80
RESOLUTION_X 75
RESOLUTION_Y 75
SPACING "M"
AVERAGE_WIDTH 80
CHARSET_REGISTRY "ISO10646"
CHARSET_ENCODING "1"
ENDPROPERTIES
CHARS 344
STARTCHAR 20
ENCODING 32
SWIDTH 960 0
DWIDTH 8 0
BBX 8 8 0 0
BITMAP
00
00
00
00
00
00
00
00
ENDCHAR
STARTCHAR 21
ENCODING 33
SWIDTH 960 0
DWIDTH 8 0
BBX 8 8 0 0
BITMAP
18
18
18
18
00
18
18
00
ENDCHAR
STARTCHAR 22
ENCODING 34
SWIDTH 960 0
DWIDTH 8 0
BBX 8 8 0 0
BITMAP
6c
6c
00
00
00
00
00
00
ENDCHAR
STARTCHAR 23
ENCODING 35
SWIDTH 960 0
DWIDTH 8 0
BBX 8 8 0 0
BITMAP
44
fe
44
44
fe
44
44
00
ENDCHAR
STARTCHAR 24
ENCODING 36
SWIDTH 960 0
DWIDTH 8 0
BBX 8 8 0 0
BITMAP
10
fe
90
fe
12
fe
10
00
ENDCHAR
STARTCHAR 25
ENCODING 37
SWIDTH 960 0
DWIDTH 8 0
BBX 8 8 0 0
BITMAP
e2
a4
a8
fe
2a
4a
8e
00
ENDCHAR
STARTCHAR 26
ENCODING 38
SWIDTH 960 0
DWIDTH 8 0
BBX 8 8 0 0
BITMAP
f8
88
88
70
8a
84
fa
00
ENDCHAR
STARTCHAR 27
ENCODING 39
SWIDTH 960 0
DWIDTH 8 0
BBX 8 8 0 0
BITMAP
18
30
00
00
00
00
00
00
ENDCHAR
STARTCHAR 28
ENCODING 40
SWIDTH 960 0
DWIDTH 8 0
BBX 8 8 0 0
BITMAP
08
10
20
20
20
10
08
00
ENDCHAR
STARTCHAR 29
ENCODING 41
SWIDTH 960 0
DWIDTH 8 0
BBX 8 8 0 0
BITMAP
20
10
08
08
08
10
20
00
ENDCHAR
STARTCHAR 2a
ENCODING 42
SWIDTH 960 0
DWIDTH 8 0
BBX 8 8 0 0
BITMAP
10
92
54
38
54
92
10
00
ENDCHAR
STARTCHAR 2b
ENCODING 43
SWIDTH 960 0
DWIDTH 8 0
BBX 8 8 0 0
BITMAP
10
10
10
fe
10
10
10
00
ENDCHAR
STARTCHAR 2c
ENCODING 44
SWIDTH 960 0
DWIDTH 8 0
BBX 8 8 0 0
BITMAP
00
00
00
00
18
18
08
10
ENDCHAR
STARTCHAR 2d
ENCODING 45
SWIDTH 960 0
DWIDTH 8 0
BBX 8 8 0 0
BITMAP
00
00
00
fe
00
00
00
00
ENDCHAR
STARTCHAR 2e
ENCODING 46
SWIDTH 960 0
DWIDTH 8 0
BBX 8 8 0 0
BITMAP
00
00
00
00
00
18
18
00
ENDCHAR
STARTCHAR 2f
ENCODING 47
SWIDTH 960 0
DWIDTH 8 0
BBX 8 8 0 0
BITMAP
00
02
04
08
10
20
40
00
ENDCHAR
STARTCHAR 30
ENCODING 48
SWIDTH 960 0
DWIDTH 8 0
BBX 8 8 0 0
BITMAP
7c
82
8a
92
a2
82
7c
00
ENDCHAR
STARTCHAR 31
ENCODING 49
SWIDTH 960 0
DWIDTH 8 0
BBX 8 8 0 0
BITMAP
10
30
50
10
10
10
7c
00
ENDCHAR
STARTCHAR 32
ENCODING 50
SWIDTH 960 0
DWIDTH 8 0
BBX 8 8 0 0
BITMAP
7c
82
02
7c
80
80
fe
00
ENDCHAR
STARTCHAR 33
ENCODING 51
SWIDTH 960 0
DWIDTH 8 0
BBX 8 8 0 0
BITMAP
7c
82
02
1c
02
82
7c
00
ENDCHAR
STARTCHAR 34
ENCODING 52
SWIDTH 960 0
DWIDTH 8 0
BBX 8 8 0 0
BITMAP
04
0c
14
24
44
fe
04
00
ENDCHAR
STARTCHAR 35
ENCODING 53
SWIDTH 960 0
DWIDTH 8 0
BBX 8 8 0 0
BITMAP
fe
80
80
fc
02
82
7c
00
ENDCHAR
STARTCHAR 36
ENCODING 54
SWIDTH 960 0
DWIDTH 8 0
BBX 8 8 0 0
BITMAP
7c
80
80
fc
82
82
7c
00
ENDCHAR
STARTCHAR 37
ENCODING 55
SWIDTH 960 0
DWIDTH 8 0
BBX 8 8 0 0
BITMAP
fe
02
04
08
10
10
10
00
ENDCHAR
STARTCHAR 38
ENCODING 56
SWIDTH 960 0
DWIDTH 8 0
BBX 8 8 0 0
BITMAP
7c
82
82
7c
82
82
7c
00
ENDCHAR
STARTCHAR 39
ENCODING 57
SWIDTH 960 0
DWIDTH 8 0
BBX 8 8 0 0
BITMAP
7c
82
82
7e
02
02
7c
00
ENDCHAR
STARTCHAR 3a
ENCODING 58
SWIDTH 960 0
DWIDTH 8 0
BBX 8 8 0 0
BITMAP
00
18
18
00
18
18
00
00
ENDCHAR
STARTCHAR 3b
ENCODING 59
SWIDTH 960 0
DWIDTH 8 0
BBX 8 8 0 0
BITMAP
00
18
18
00
18
18
08
10
ENDCHAR
STARTCHAR 3c
ENCODING 60
SWIDTH 960 0
DWIDTH 8 0
BBX 8 8 0 0
BITMAP
04
08
10
20
10
08
04
00
ENDCHAR
STARTCHAR 3d
ENCODING 61
SWIDTH 960 0
DWIDTH 8 0
BBX 8 8 0 0
BITMAP
00
00
fe
00
fe
00
00
00
ENDCHAR
STARTCHAR 3e
ENCODING 62
SWIDTH 960 0
DWIDTH 8 0
BBX 8 8 0 0
BITMAP
20
10
08
04
08
10
20
00
ENDCHAR
STARTCHAR 3f
ENCODING 63
SWIDTH 960 0
DWIDTH 8 0
BBX 8 8 0 0
BITMAP
7c
c6
c6
0c
18
00
18
00
ENDCHAR
STARTCHAR 40
ENCODING 64
SWIDTH 960 0
DWIDTH 8 0
BBX 8 8 0 0
BITMAP
7c
82
ba
aa
bc
80
7e
00
ENDCHAR
STARTCHAR 41
ENCODING 65
SWIDTH 960 0
DWIDTH 8 0
BBX 8 8 0 0
BITMAP
7c
82
82
82
fe
82
82
00
ENDCHAR
STARTCHAR 42
ENCODING 66
SWIDTH 960 0
DWIDTH 8 0
BBX 8 8 0 0
BITMAP
fc
82
82
fc
82
82
fc
00
ENDCHAR
STARTCHAR 43
ENCODING 67
SWIDTH 960 0
DWIDTH 8 0
BBX 8 8 0 0
BITMAP
7c
82
80
80
80
82
7c
00
ENDCHAR
STARTCHAR 44
ENCODING 68
SWIDTH 960 0
DWIDTH 8 0
BBX 8 8 0 0
BITMAP
fc
82
82
82
82
82
fc
00
ENDCHAR
STARTCHAR 45
ENCODING 69
SWIDTH 960 0
DWIDTH 8 0
BBX 8 8 0 0
BITMAP
fe
80
80
fc
80
80
fe
00
ENDCHAR
STARTCHAR 46
ENCODING 70
SWIDTH 960 0
DWIDTH 8 0
BBX 8 8 0 0
BITMAP
fe
80
80
fc
80
80
80
00
ENDCHAR
STARTCHAR 47
ENCODING 71
SWIDTH 960 0
DWIDTH 8 0
BBX 8 8 0 0
BITMAP
7c
82
80
8e
82
82
7c
00
ENDCHAR
STARTCHAR 48
ENCODING 72
SWIDTH 960 0
DWIDTH 8 0
BBX 8 8 0 0
BITMAP
82
82
82
fe
82
82
82
00
ENDCHAR
STARTCHAR 49
ENCODING 73
SWIDTH 960 0
DWIDTH 8 0
BBX 8 8 0 0
BITMAP
38
10
10
10
10
10
38
00
ENDCHAR
STARTCHAR 4a
ENCODING 74
SWIDTH 960 0
DWIDTH 8 0
BBX 8 8 0 0
BITMAP
0e
04
04
04
04
84
78
00
ENDCHAR
STARTCHAR 4b
ENCODING 75
SWIDTH 960 0
DWIDTH 8 0
BBX 8 8 0 0
BITMAP
82
84
88
f0
88
84
82
00
ENDCHAR
STARTCHAR 4c
ENCODING 76
SWIDTH 960 0
DWIDTH 8 0
BBX 8 8 0 0
BITMAP
80
80
80
80
80
80
fe
00
ENDCHAR
STARTCHAR 4d
ENCODING 77
SWIDTH 960 0
DWIDTH 8 0
BBX 8 8 0 0
BITMAP
82
c6
aa
92
82
82
82
00
ENDCHAR
STARTCHAR 4e
ENCODING 78
SWIDTH 960 0
DWIDTH 8 0
BBX 8 8 0 0
BITMAP
82
c2
a2
92
8a
86
82
00
ENDCHAR
STARTCHAR 4f
ENCODING 79
SWIDTH 960 0
DWIDTH 8 0
BBX 8 8 0 0
BITMAP
7c
82
82
82
82
82
7c
00
ENDCHAR
STARTCHAR 50
ENCODING 80
SWIDTH 960 0
DWIDTH 8 0
BBX 8 8 0 0
BITMAP
fc
82
82
fc
80
80
80
00
ENDCHAR
STARTCHAR 51
ENCODING 81
SWIDTH 960 0
DWIDTH 8 0
BBX 8 8 0 0
BITMAP
7c
82
82
82
8a
84
7a
00
ENDCHAR
STARTCHAR 52
ENCODING 82
SWIDTH 960 0
DWIDTH 8 0
BBX 8 8 0 0
BITMAP
fc
82
82
fc
88
84
82
00
ENDCHAR
STARTCHAR 53
ENCODING 83
SWIDTH 960 0
DWIDTH 8 0
BBX 8 8 0 0
BITMAP
7c
82
80
7c
02
82
7c
00
ENDCHAR
STARTCHAR 54
ENCODING 84
SWIDTH 960 0
DWIDTH 8 0
BBX 8 8 0 0
BITMAP
fe
10
10
10
10
10
10
00
ENDCHAR
STARTCHAR 55
ENCODING 85
SWIDTH 960 0
DWIDTH 8 0
BBX 8 8 0 0
BITMAP
82
82
82
82
82
82
7c
00
ENDCHAR
STARTCHAR 56
ENCODING 86
SWIDTH 960 0
DWIDTH 8 0
BBX 8 8 0 0
BITMAP
82
82
44
44
28
28
10
00
ENDCHAR
STARTCHAR 57
ENCODING 87
SWIDTH 960 0
DWIDTH 8 0
BBX 8 8 0 0
BITMAP
82
82
82
92
aa
c6
82
00
ENDCHAR
STARTCHAR 58
ENCODING 88
SWIDTH 960 0
DWIDTH 8 0
BBX 8 8 0 0
BITMAP
82
44
28
10
28
44
82
00
ENDCHAR
STARTCHAR 59
ENCODING 89
SWIDTH 960 0
DWIDTH 8 0
BBX 8 8 0 0
BITMAP
82
82
44
28
10
10
10
00
ENDCHAR
STARTCHAR 5a
ENCODING 90
SWIDTH 960 0
DWIDTH 8 0
BBX 8 8 0 0
BITMAP
fe
04
08
10
20
40
fe
00
ENDCHAR
STARTCHAR 5b
ENCODING 91
SWIDTH 960 0
DWIDTH 8 0
BBX 8 8 0 0
BITMAP
38
20
20
20
20
20
38
00
ENDCHAR
STARTCHAR 5c
ENCODING 92
SWIDTH 960 0
DWIDTH 8 0
BBX 8 8 0 0
BITMAP
00
40
20
10
08
04
02
00
ENDCHAR
STARTCHAR 5d
ENCODING 93
SWIDTH 960 0
DWIDTH 8 0
BBX 8 8 0 0
BITMAP
38
08
08
08
08
08
38
00
ENDCHAR
STARTCHAR 5f
ENCODING 95
SWIDTH 960 0
DWIDTH 8 0
BBX 8 8 0 0
BITMAP
00
00
00
00
00
00
00
ff
ENDCHAR
STARTCHAR 61
ENCODING 97
SWIDTH 960 0
DWIDTH 8 0
BBX 8 8 0 0
BITMAP
00
00
7c
02
7e
82
7e
00
ENDCHAR
STARTCHAR 62
ENCODING 98
SWIDTH 960 0
DWIDTH 8 0
BBX 8 8 0 0
BITMAP
80
80
80
fc
82
82
fc
00
ENDCHAR
STARTCHAR 63
ENCODING 99
SWIDTH 960 0
DWIDTH 8 0
BBX 8 8 0 0
BITMAP
00
00
00
7e
80
80
7e
00
ENDCHAR
STARTCHAR 64
ENCODING 100
SWIDTH 960 0
DWIDTH 8 0
BBX 8 8 0 0
BITMAP
02
02
02
7e
82
82
7e
00
ENDCHAR
STARTCHAR 65
ENCODING 101
SWIDTH 960 0
DWIDTH 8 0
BBX 8 8 0 0
BITMAP
00
00
7c
82
fe
80
7c
00
ENDCHAR
STARTCHAR 66
ENCODING 102
SWIDTH 960 0
DWIDTH 8 0
BBX 8 8 0 0
BITMAP
0e
10
10
fe
10
10
10
00
ENDCHAR
STARTCHAR 67
ENCODING 103
SWIDTH 960 0
DWIDTH 8 0
BBX 8 8 0 0
BITMAP
00
00
7e
82
82
7e
02
7c
ENDCHAR
STARTCHAR 68
ENCODING 104
SWIDTH 960 0
DWIDTH 8 0
BBX 8 8 0 0
BITMAP
80
80
80
fc
82
82
82
00
ENDCHAR
STARTCHAR 69
ENCODING 105
SWIDTH 960 0
DWIDTH 8 0
BBX 8 8 0 0
BITMAP
10
00
00
10
10
10
10
00
ENDCHAR
STARTCHAR 6a
ENCODING 106
SWIDTH 960 0
DWIDTH 8 0
BBX 8 8 0 0
BITMAP
02
00
02
02
02
02
82
7c
ENDCHAR
STARTCHAR 6b
ENCODING 107
SWIDTH 960 0
DWIDTH 8 0
BBX 8 8 0 0
BITMAP
80
80
84
88
f0
88
84
00
ENDCHAR
STARTCHAR 6c
ENCODING 108
SWIDTH 960 0
DWIDTH 8 0
BBX 8 8 0 0
BITMAP
30
10
10
10
10
10
7c
00
ENDCHAR
STARTCHAR 6d
ENCODING 109
SWIDTH 960 0
DWIDTH 8 0
BBX 8 8 0 0
BITMAP
00
00
ec
92
92
92
92
00
ENDCHAR
STARTCHAR 6e
ENCODING 110
SWIDTH 960 0
DWIDTH 8 0
BBX 8 8 0 0
BITMAP
00
00
bc
c2
82
82
82
00
ENDCHAR
STARTCHAR 6f
ENCODING 111
SWIDTH 960 0
DWIDTH 8 0
BBX 8 8 0 0
BITMAP
00
00
7c
82
82
82
7c
00
ENDCHAR
STARTCHAR 70
ENCODING 112
SWIDTH 960 0
DWIDTH 8 0
BBX 8 8 0 0
BITMAP
00
00
fc
82
82
fc
80
80
ENDCHAR
STARTCHAR 71
ENCODING 113
SWIDTH 960 0
DWIDTH 8 0
BBX 8 8 0 0
BITMAP
00
00
7e
82
82
7e
02
02
ENDCHAR
STARTCHAR 72
ENCODING 114
SWIDTH 960 0
DWIDTH 8 0
BBX 8 8 0 0
BITMAP
00
00
4e
50
60
40
40
00
ENDCHAR
STARTCHAR 73
ENCODING 115
SWIDTH 960 0
DWIDTH 8 0
BBX 8 8 0 0
BITMAP
00
00
7e
80
7c
02
fc
00
ENDCHAR
STARTCHAR 74
ENCODING 116
SWIDTH 960 0
DWIDTH 8 0
BBX 8 8 0 0
BITMAP
20
20
fc
20
20
20
1e
00
ENDCHAR
STARTCHAR 75
ENCODING 117
SWIDTH 960 0
DWIDTH 8 0
BBX 8 8 0 0
BITMAP
00
00
82
82
82
82
7c
00
ENDCHAR
STARTCHAR 76
ENCODING 118
SWIDTH 960 0
DWIDTH 8 0
BBX 8 8 0 0
BITMAP
00
00
82
82
44
28
10
00
ENDCHAR
STARTCHAR 77
ENCODING 119
SWIDTH 960 0
DWIDTH 8 0
BBX 8 8 0 0
BITMAP
00
00
82
82
92
aa
44
00
ENDCHAR
STARTCHAR 78
ENCODING 120
SWIDTH 960 0
DWIDTH 8 0
BBX 8 8 0 0
BITMAP
00
00
82
44
38
44
82
00
ENDCHAR
STARTCHAR 79
ENCODING 121
SWIDTH 960 0
DWIDTH 8 0
BBX 8 8 0 0
BITMAP
00
00
82
82
82
7e
02
7c
ENDCHAR
STARTCHAR 7a
ENCODING 122
SWIDTH 960 0
DWIDTH 8 0
BBX 8 8 0 0
BITMAP
00
00
fe
04
38
40
fe
00
ENDCHAR
STARTCHAR 7c
ENCODING 124
SWIDTH 960 0
DWIDTH 8 0
BBX 8 8 0 0
BITMAP
08
08
08
08
08
08
08
08
ENDCHAR
STARTCHAR 7e
ENCODING 126
SWIDTH 960 0
DWIDTH 8 0
BBX 8 8 0 0
BITMAP
00
00
60
90
09
06
00
00
ENDCHAR
STARTCHAR d7
ENCODING 215
SWIDTH 960 0
DWIDTH 8 0
BBX 8 8 0 0
BITMAP
81
42
24
18
18
24
42
81
ENDCHAR
STARTCHAR 3c0
ENCODING 960
SWIDTH 960 0
DWIDTH 8 0
BBX 8 8 0 0
BITMAP
00
02
02
7c
a8
a8
28
00
ENDCHAR
STARTCHAR 2026
ENCODING 8230
SWIDTH 960 0
DWIDTH 8 0
BBX 8 8 0 0
BITMAP
00
00
00
60
90
90
60
00
ENDCHAR
STARTCHAR 2190
ENCODING 8592
SWIDTH 960 0
DWIDTH 8 0
BBX 8 8 0 0
BITMAP
00
08
18
38
7f
38
18
08
ENDCHAR
STARTCHAR 2191
ENCODING 8593
SWIDTH 960 0
DWIDTH 8 0
BBX 8 8 0 0
BITMAP
00
08
1c
3e
7f
08
08
08
ENDCHAR
STARTCHAR 2192
ENCODING 8594
SWIDTH 960 0
DWIDTH 8 0
BBX 8 8 0 0
BITMAP
00
10
18
1c
fe
1c
18
10
ENDCHAR
STARTCHAR 2193
ENCODING 8595
SWIDTH 960 0
DWIDTH 8 0
BBX 8 8 0 0
BITMAP
08
08
08
7f
3e
1c
08
00
ENDCHAR
STARTCHAR 21bf
ENCODING 8639
SWIDTH 960 0
DWIDTH 8 0
BBX 8 8 0 0
BITMAP
02
02
02
02
02
02
07
02
ENDCHAR
STARTCHAR 21c0
ENCODING 8640
SWIDTH 960 0
DWIDTH 8 0
BBX 8 8 0 0
BITMAP
00
00
00
00
00
02
ff
02
ENDCHAR
STARTCHAR 21d6
ENCODING 8662
SWIDTH 960 0
DWIDTH 8 0
BBX 8 8 0 0
BITMAP
20
10
88
44
22
11
08
04
ENDCHAR
STARTCHAR 21d7
ENCODING 8663
SWIDTH 960 0
DWIDTH 8 0
BBX 8 8 0 0
BITMAP
04
08
11
22
44
88
10
20
ENDCHAR
STARTCHAR 21e6
ENCODING 8678
SWIDTH 960 0
DWIDTH 8 0
BBX 8 8 0 0
BITMAP
ff
f7
e7
c7
80
c7
e7
f7
ENDCHAR
STARTCHAR 21e7
ENCODING 8679
SWIDTH 960 0
DWIDTH 8 0
BBX 8 8 0 0
BITMAP
ff
f7
e3
c1
80
f7
f7
f7
ENDCHAR
STARTCHAR 21e8
ENCODING 8680
SWIDTH 960 0
DWIDTH 8 0
BBX 8 8 0 0
BITMAP
ff
ef
e7
e3
01
e3
e7
ef
ENDCHAR
STARTCHAR 21e9
ENCODING 8681
SWIDTH 960 0
DWIDTH 8 0
BBX 8 8 0 0
BITMAP
f7
f7
f7
80
c1
e3
f7
ff
ENDCHAR
STARTCHAR 22a5
ENCODING 8869
SWIDTH 960 0
DWIDTH 8 0
BBX 8 8 0 0
BITMAP
02
02
02
02
02
02
ff
02
ENDCHAR
STARTCHAR 2460
ENCODING 9312
SWIDTH 960 0
DWIDTH 8 0
BBX 8 8 0 0
BITMAP
f0
f0
f0
f0
00
00
00
00
ENDCHAR
STARTCHAR 2461
ENCODING 9313
SWIDTH 960 0
DWIDTH 8 0
BBX 8 8 0 0
BITMAP
0f
0f
0f
0f
00
00
00
00
ENDCHAR
STARTCHAR 2462
ENCODING 9314
SWIDTH 960 0
DWIDTH 8 0
BBX 8 8 0 0
BITMAP
ff
ff
ff
ff
00
00
00
00
ENDCHAR
STARTCHAR 2463
ENCODING 9315
SWIDTH 960 0
DWIDTH 8 0
BBX 8 8 0 0
BITMAP
00
00
00
00
f0
f0
f0
f0
ENDCHAR
STARTCHAR 2464
ENCODING 9316
SWIDTH 960 0
DWIDTH 8 0
BBX 8 8 0 0
BITMAP
f0
f0
f0
f0
f0
f0
f0
f0
ENDCHAR
STARTCHAR 2465
ENCODING 9317
SWIDTH 960 0
DWIDTH 8 0
BBX 8 8 0 0
BITMAP
0f
0f
0f
0f
f0
f0
f0
f0
ENDCHAR
STARTCHAR 2466
ENCODING 9318
SWIDTH 960 0
DWIDTH 8 0
BBX 8 8 0 0
BITMAP
ff
ff
ff
ff
f0
f0
f0
f0
ENDCHAR
STARTCHAR 2467
ENCODING 9319
SWIDTH 960 0
DWIDTH 8 0
BBX 8 8 0 0
BITMAP
00
00
00
00
0f
0f
0f
0f
ENDCHAR
STARTCHAR 2468
ENCODING 9320
SWIDTH 960 0
DWIDTH 8 0
BBX 8 8 0 0
BITMAP
f0
f0
f0
f0
0f
0f
0f
0f
ENDCHAR
STARTCHAR 2469
ENCODING 9321
SWIDTH 960 0
DWIDTH 8 0
BBX 8 8 0 0
BITMAP
0f
0f
0f
0f
0f
0f
0f
0f
ENDCHAR
STARTCHAR 246a
ENCODING 9322
SWIDTH 960 0
DWIDTH 8 0
BBX 8 8 0 0
BITMAP
ff
ff
ff
ff
0f
0f
0f
0f
ENDCHAR
STARTCHAR 246b
ENCODING 9323
SWIDTH 960 0
DWIDTH 8 0
BBX 8 8 0 0
BITMAP
00
00
00
00
ff
ff
ff
ff
ENDCHAR
STARTCHAR 246c
ENCODING 9324
SWIDTH 960 0
DWIDTH 8 0
BBX 8 8 0 0
BITMAP
f0
f0
f0
f0
ff
ff
ff
ff
ENDCHAR
STARTCHAR 246d
ENCODING 9325
SWIDTH 960 0
DWIDTH 8 0
BBX 8 8 0 0
BITMAP
0f
0f
0f
0f
ff
ff
ff
ff
ENDCHAR
STARTCHAR 246e
ENCODING 9326
SWIDTH 960 0
DWIDTH 8 0
BBX 8 8 0 0
BITMAP
ff
ff
ff
ff
ff
ff
ff
ff
ENDCHAR
STARTCHAR 24b8
ENCODING 9400
SWIDTH 960 0
DWIDTH 8 0
BBX 8 8 0 0
BITMAP
83
7d
7f
7f
7f
7d
83
ff
ENDCHAR
STARTCHAR 24bd
ENCODING 9405
SWIDTH 960 0
DWIDTH 8 0
BBX 8 8 0 0
BITMAP
7d
7d
7d
01
7d
7d
7d
ff
ENDCHAR
STARTCHAR 2500
ENCODING 9472
SWIDTH 960 0
DWIDTH 8 0
BBX 8 8 0 0
BITMAP
00
00
00
00
ff
00
00
00
ENDCHAR
STARTCHAR 2503
ENCODING 9475
SWIDTH 960 0
DWIDTH 8 0
BBX 8 8 0 0
BITMAP
10
10
10
10
10
10
10
10
ENDCHAR
STARTCHAR 2506
ENCODING 9478
SWIDTH 960 0
DWIDTH 8 0
BBX 8 8 0 0
BITMAP
02
02
02
02
02
02
02
02
ENDCHAR
STARTCHAR 2507
ENCODING 9479
SWIDTH 960 0
DWIDTH 8 0
BBX 8 8 0 0
BITMAP
40
40
40
40
40
40
40
40
ENDCHAR
STARTCHAR 250a
ENCODING 9482
SWIDTH 960 0
DWIDTH 8 0
BBX 8 8 0 0
BITMAP
04
04
04
04
04
04
04
04
ENDCHAR
STARTCHAR 250b
ENCODING 9483
SWIDTH 960 0
DWIDTH 8 0
BBX 8 8 0 0
BITMAP
20
20
20
20
20
20
20
20
ENDCHAR
STARTCHAR 250c
ENCODING 9484
SWIDTH 960 0
DWIDTH 8 0
BBX 8 8 0 0
BITMAP
00
00
00
00
0f
08
08
08
ENDCHAR
STARTCHAR 250f
ENCODING 9487
SWIDTH 960 0
DWIDTH 8 0
BBX 8 8 0 0
BITMAP
ff
80
80
80
80
80
80
80
ENDCHAR
STARTCHAR 2510
ENCODING 9488
SWIDTH 960 0
DWIDTH 8 0
BBX 8 8 0 0
BITMAP
00
00
00
00
f8
08
08
08
ENDCHAR
STARTCHAR 2513
ENCODING 9491
SWIDTH 960 0
DWIDTH 8 0
BBX 8 8 0 0
BITMAP
ff
01
01
01
01
01
01
01
ENDCHAR
STARTCHAR 2514
ENCODING 9492
SWIDTH 960 0
DWIDTH 8 0
BBX 8 8 0 0
BITMAP
08
08
08
08
0f
00
00
00
ENDCHAR
STARTCHAR 2517
ENCODING 9495
SWIDTH 960 0
DWIDTH 8 0
BBX 8 8 0 0
BITMAP
80
80
80
80
80
80
80
ff
ENDCHAR
STARTCHAR 2518
ENCODING 9496
SWIDTH 960 0
DWIDTH 8 0
BBX 8 8 0 0
BITMAP
08
08
08
08
f8
00
00
00
ENDCHAR
STARTCHAR 251b
ENCODING 9499
SWIDTH 960 0
DWIDTH 8 0
BBX 8 8 0 0
BITMAP
01
01
01
01
01
01
01
ff
ENDCHAR
STARTCHAR 251c
ENCODING 9500
SWIDTH 960 0
DWIDTH 8 0
BBX 8 8 0 0
BITMAP
08
08
08
08
0f
08
08
08
ENDCHAR
STARTCHAR 2524
ENCODING 9508
SWIDTH 960 0
DWIDTH 8 0
BBX 8 8 0 0
BITMAP
08
08
08
08
f8
08
08
08
ENDCHAR
STARTCHAR 252c
ENCODING 9516
SWIDTH 960 0
DWIDTH 8 0
BBX 8 8 0 0
BITMAP
00
00
00
00
ff
08
08
08
ENDCHAR
STARTCHAR 2534
ENCODING 9524
SWIDTH 960 0
DWIDTH 8 0
BBX 8 8 0 0
BITMAP
08
08
08
08
ff
00
00
00
ENDCHAR
STARTCHAR 253c
ENCODING 9532
SWIDTH 960 0
DWIDTH 8 0
BBX 8 8 0 0
BITMAP
08
08
08
08
ff
08
08
08
ENDCHAR
STARTCHAR 256d
ENCODING 9581
SWIDTH 960 0
DWIDTH 8 0
BBX 8 8 0 0
BITMAP
00
00
00
00
03
04
08
08
ENDCHAR
STARTCHAR 256e
ENCODING 9582
SWIDTH 960 0
DWIDTH 8 0
BBX 8 8 0 0
BITMAP
00
00
00
00
e0
10
08
08
ENDCHAR
STARTCHAR 256f
ENCODING 9583
SWIDTH 960 0
DWIDTH 8 0
BBX 8 8 0 0
BITMAP
08
08
08
10
e0
00
00
00
ENDCHAR
STARTCHAR 2570
ENCODING 9584
SWIDTH 960 0
DWIDTH 8 0
BBX 8 8 0 0
BITMAP
08
08
08
04
03
00
00
00
ENDCHAR
STARTCHAR 2580
ENCODING 9600
SWIDTH 960 0
DWIDTH 8 0
BBX 8 8 0 0
BITMAP
ff
ff
ff
ff
00
00
00
00
ENDCHAR
STARTCHAR 2582
ENCODING 9602
SWIDTH 960 0
DWIDTH 8 0
BBX 8 8 0 0
BITMAP
00
00
00
00
00
00
ff
ff
ENDCHAR
STARTCHAR 2583
ENCODING 9603
SWIDTH 960 0
DWIDTH 8 0
BBX 8 8 0 0
BITMAP
00
00
00
00
00
ff
ff
ff
ENDCHAR
STARTCHAR 2584
ENCODING 9604
SWIDTH 960 0
DWIDTH 8 0
BBX 8 8 0 0
BITMAP
00
00
00
00
ff
ff
ff
ff
ENDCHAR
STARTCHAR 258d
ENCODING 9613
SWIDTH 960 0
DWIDTH 8 0
BBX 8 8 0 0
BITMAP
f0
f0
f0
f0
f0
f0
f0
f0
ENDCHAR
STARTCHAR 258e
ENCODING 9614
SWIDTH 960 0
DWIDTH 8 0
BBX 8 8 0 0
BITMAP
c0
c0
c0
c0
c0
c0
c0
c0
ENDCHAR
STARTCHAR 258f
ENCODING 9615
SWIDTH 960 0
DWIDTH 8 0
BBX 8 8 0 0
BITMAP
80
80
80
80
80
80
80
80
ENDCHAR
STARTCHAR 2590
ENCODING 9616
SWIDTH 960 0
DWIDTH 8 0
BBX 8 8 0 0
BITMAP
0f
0f
0f
0f
0f
0f
0f
0f
ENDCHAR
STARTCHAR 2591
ENCODING 9617
SWIDTH 960 0
DWIDTH 8 0
BBX 8 8 0 0
BITMAP
55
aa
55
aa
55
aa
55
aa
ENDCHAR
STARTCHAR 2592
ENCODING 9618
SWIDTH 960 0
DWIDTH 8 0
BBX 8 8 0 0
BITMAP
aa
55
aa
55
aa
55
aa
55
ENDCHAR
STARTCHAR 2593
ENCODING 9619
SWIDTH 960 0
DWIDTH 8 0
BBX 8 8 0 0
BITMAP
a0
50
a0
50
a0
50
a0
50
ENDCHAR
STARTCHAR 2595
ENCODING 9621
SWIDTH 960 0
DWIDTH 8 0
BBX 8 8 0 0
BITMAP
01
01
01
01
01
01
01
01
ENDCHAR
STARTCHAR 259a
ENCODING 9626
SWIDTH 960 0
DWIDTH 8 0
BBX 8 8 0 0
BITMAP
f0
f0
f0
f0
0f
0f
0f
0f
ENDCHAR
STARTCHAR 259e
ENCODING 9630
SWIDTH 960 0
DWIDTH 8 0
BBX 8 8 0 0
BITMAP
0f
0f
0f
0f
f0
f0
f0
f0
ENDCHAR
STARTCHAR 25a0
ENCODING 9632
SWIDTH 960 0
DWIDTH 8 0
BBX 8 8 0 0
BITMAP
ff
ff
ff
ff
ff
ff
ff
ff
ENDCHAR
STARTCHAR 25bd
ENCODING 9661
SWIDTH 960 0
DWIDTH 8 0
BBX 8 8 0 0
BITMAP
ff
ff
00
00
00
00
00
00
ENDCHAR
STARTCHAR 25c0
ENCODING 9664
SWIDTH 960 0
DWIDTH 8 0
BBX 8 8 0 0
BITMAP
07
07
07
07
07
07
07
07
ENDCHAR
STARTCHAR 25c1
ENCODING 9665
SWIDTH 960 0
DWIDTH 8 0
BBX 8 8 0 0
BITMAP
03
03
03
03
03
03
03
03
ENDCHAR
STARTCHAR 25cb
ENCODING 9675
SWIDTH 960 0
DWIDTH 8 0
BBX 8 8 0 0
BITMAP
00
3c
42
42
42
42
3c
00
ENDCHAR
STARTCHAR 25ce
ENCODING 9678
SWIDTH 960 0
DWIDTH 8 0
BBX 8 8 0 0
BITMAP
ff
c3
81
81
81
81
c3
ff
ENDCHAR
STARTCHAR 25cf
ENCODING 9679
SWIDTH 960 0
DWIDTH 8 0
BBX 8 8 0 0
BITMAP
00
3c
7e
7e
7e
7e
3c
00
ENDCHAR
STARTCHAR 25e2
ENCODING 9698
SWIDTH 960 0
DWIDTH 8 0
BBX 8 8 0 0
BITMAP
01
03
07
0f
1f
3f
7f
ff
ENDCHAR
STARTCHAR 25e3
ENCODING 9699
SWIDTH 960 0
DWIDTH 8 0
BBX 8 8 0 0
BITMAP
80
c0
e0
f0
f8
fc
fe
ff
ENDCHAR
STARTCHAR 25e4
ENCODING 9700
SWIDTH 960 0
DWIDTH 8 0
BBX 8 8 0 0
BITMAP
ff
fe
fc
f8
f0
e0
c0
80
ENDCHAR
STARTCHAR 25e5
ENCODING 9701
SWIDTH 960 0
DWIDTH 8 0
BBX 8 8 0 0
BITMAP
ff
7f
3f
1f
0f
07
03
01
ENDCHAR
STARTCHAR 263a
ENCODING 9786
SWIDTH 960 0
DWIDTH 8 0
BBX 8 8 0 0
BITMAP
3c
42
a5
81
a5
99
42
3c
ENDCHAR
STARTCHAR 263b
ENCODING 9787
SWIDTH 960 0
DWIDTH 8 0
BBX 8 8 0 0
BITMAP
3c
7e
db
db
ff
db
66
3c
ENDCHAR
STARTCHAR 2660
ENCODING 9824
SWIDTH 960 0
DWIDTH 8 0
BBX 8 8 0 0
BITMAP
10
38
7c
fe
fe
38
7c
00
ENDCHAR
STARTCHAR 2663
ENCODING 9827
SWIDTH 960 0
DWIDTH 8 0
BBX 8 8 0 0
BITMAP
38
38
fe
fe
d6
10
7c
00
ENDCHAR
STARTCHAR 2665
ENCODING 9829
SWIDTH 960 0
DWIDTH 8 0
BBX 8 8 0 0
BITMAP
6c
fe
fe
fe
7c
38
10
00
ENDCHAR
STARTCHAR 2666
ENCODING 9830
SWIDTH 960 0
DWIDTH 8 0
BBX 8 8 0 0
BITMAP
10
38
7c
fe
7c
38
10
00
ENDCHAR
STARTCHAR 3001
ENCODING 12289
SWIDTH 960 0
DWIDTH 8 0
BBX 8 8 0 0
BITMAP
00
00
00
00
40
20
10
00
ENDCHAR
STARTCHAR 3002
ENCODING 12290
SWIDTH 960 0
DWIDTH 8 0
BBX 8 8 0 0
BITMAP
00
00
00
30
48
48
30
00
ENDCHAR
STARTCHAR 300c
ENCODING 12300
SWIDTH 960 0
DWIDTH 8 0
BBX 8 8 0 0
BITMAP
1e
10
10
10
00
00
00
00
ENDCHAR
STARTCHAR 300d
ENCODING 12301
SWIDTH 960 0
DWIDTH 8 0
BBX 8 8 0 0
BITMAP
00
00
00
08
08
08
78
00
ENDCHAR
STARTCHAR 300e
ENCODING 12302
SWIDTH 960 0
DWIDTH 8 0
BBX 8 8 0 0
BITMAP
3e
22
2e
28
38
00
00
00
ENDCHAR
STARTCHAR 300f
ENCODING 12303
SWIDTH 960 0
DWIDTH 8 0
BBX 8 8 0 0
BITMAP
00
00
38
28
e8
88
f8
00
ENDCHAR
STARTCHAR 301d
ENCODING 12317
SWIDTH 960 0
DWIDTH 8 0
BBX 8 8 0 0
BITMAP
20
90
48
20
00
00
00
00
ENDCHAR
STARTCHAR 3041
ENCODING 12353
SWIDTH 960 0
DWIDTH 8 0
BBX 8 8 0 0
BITMAP
00
10
fe
14
7c
9a
74
00
ENDCHAR
STARTCHAR 3042
ENCODING 12354
SWIDTH 960 0
DWIDTH 8 0
BBX 8 8 0 0
BITMAP
20
fe
20
7c
aa
92
64
00
ENDCHAR
STARTCHAR 3043
ENCODING 12355
SWIDTH 960 0
DWIDTH 8 0
BBX 8 8 0 0
BITMAP
00
00
84
82
82
82
40
00
ENDCHAR
STARTCHAR 3044
ENCODING 12356
SWIDTH 960 0
DWIDTH 8 0
BBX 8 8 0 0
BITMAP
84
82
82
82
82
42
30
00
ENDCHAR
STARTCHAR 3045
ENCODING 12357
SWIDTH 960 0
DWIDTH 8 0
BBX 8 8 0 0
BITMAP
00
70
00
f8
04
04
18
00
ENDCHAR
STARTCHAR 3046
ENCODING 12358
SWIDTH 960 0
DWIDTH 8 0
BBX 8 8 0 0
BITMAP
7c
00
fc
02
02
04
38
00
ENDCHAR
STARTCHAR 3047
ENCODING 12359
SWIDTH 960 0
DWIDTH 8 0
BBX 8 8 0 0
BITMAP
00
38
00
fc
18
68
84
00
ENDCHAR
STARTCHAR 3048
ENCODING 12360
SWIDTH 960 0
DWIDTH 8 0
BBX 8 8 0 0
BITMAP
7c
00
fe
04
08
34
c2
00
ENDCHAR
STARTCHAR 3049
ENCODING 12361
SWIDTH 960 0
DWIDTH 8 0
BBX 8 8 0 0
BITMAP
00
20
fa
20
7c
a2
6c
00
ENDCHAR
STARTCHAR 304a
ENCODING 12362
SWIDTH 960 0
DWIDTH 8 0
BBX 8 8 0 0
BITMAP
20
fc
21
7c
a2
a2
6c
00
ENDCHAR
STARTCHAR 304b
ENCODING 12363
SWIDTH 960 0
DWIDTH 8 0
BBX 8 8 0 0
BITMAP
22
f9
25
24
24
24
48
00
ENDCHAR
STARTCHAR 304d
ENCODING 12365
SWIDTH 960 0
DWIDTH 8 0
BBX 8 8 0 0
BITMAP
08
fe
08
fe
08
78
80
7c
ENDCHAR
STARTCHAR 304f
ENCODING 12367
SWIDTH 960 0
DWIDTH 8 0
BBX 8 8 0 0
BITMAP
06
18
20
c0
20
18
06
00
ENDCHAR
STARTCHAR 3051
ENCODING 12369
SWIDTH 960 0
DWIDTH 8 0
BBX 8 8 0 0
BITMAP
84
be
84
84
84
84
58
00
ENDCHAR
STARTCHAR 3053
ENCODING 12371
SWIDTH 960 0
DWIDTH 8 0
BBX 8 8 0 0
BITMAP
7c
02
02
00
80
80
7e
00
ENDCHAR
STARTCHAR 3055
ENCODING 12373
SWIDTH 960 0
DWIDTH 8 0
BBX 8 8 0 0
BITMAP
04
fe
04
7c
80
80
7e
00
ENDCHAR
STARTCHAR 3057
ENCODING 12375
SWIDTH 960 0
DWIDTH 8 0
BBX 8 8 0 0
BITMAP
80
80
80
82
82
44
38
00
ENDCHAR
STARTCHAR 3059
ENCODING 12377
SWIDTH 960 0
DWIDTH 8 0
BBX 8 8 0 0
BITMAP
08
fe
08
18
24
18
08
70
ENDCHAR
STARTCHAR 305b
ENCODING 12379
SWIDTH 960 0
DWIDTH 8 0
BBX 8 8 0 0
BITMAP
44
fe
44
44
48
40
3e
00
ENDCHAR
STARTCHAR 305d
ENCODING 12381
SWIDTH 960 0
DWIDTH 8 0
BBX 8 8 0 0
BITMAP
fc
10
20
fe
10
20
1e
00
ENDCHAR
STARTCHAR 305f
ENCODING 12383
SWIDTH 960 0
DWIDTH 8 0
BBX 8 8 0 0
BITMAP
20
fe
40
5e
80
a0
9e
00
ENDCHAR
STARTCHAR 3061
ENCODING 12385
SWIDTH 960 0
DWIDTH 8 0
BBX 8 8 0 0
BITMAP
10
fe
40
fc
02
02
fc
00
ENDCHAR
STARTCHAR 3063
ENCODING 12387
SWIDTH 960 0
DWIDTH 8 0
BBX 8 8 0 0
BITMAP
00
00
00
fc
02
02
3c
00
ENDCHAR
STARTCHAR 3064
ENCODING 12388
SWIDTH 960 0
DWIDTH 8 0
BBX 8 8 0 0
BITMAP
00
fc
02
02
02
04
78
00
ENDCHAR
STARTCHAR 3066
ENCODING 12390
SWIDTH 960 0
DWIDTH 8 0
BBX 8 8 0 0
BITMAP
00
fe
08
10
20
10
0e
00
ENDCHAR
STARTCHAR 3068
ENCODING 12392
SWIDTH 960 0
DWIDTH 8 0
BBX 8 8 0 0
BITMAP
20
20
7e
80
80
80
7e
00
ENDCHAR
STARTCHAR 306a
ENCODING 12394
SWIDTH 960 0
DWIDTH 8 0
BBX 8 8 0 0
BITMAP
20
fa
40
44
8c
92
8c
00
ENDCHAR
STARTCHAR 306b
ENCODING 12395
SWIDTH 960 0
DWIDTH 8 0
BBX 8 8 0 0
BITMAP
5e
80
80
80
80
a0
5e
00
ENDCHAR
STARTCHAR 306c
ENCODING 12396
SWIDTH 960 0
DWIDTH 8 0
BBX 8 8 0 0
BITMAP
48
7c
92
92
a6
ab
44
00
ENDCHAR
STARTCHAR 306d
ENCODING 12397
SWIDTH 960 0
DWIDTH 8 0
BBX 8 8 0 0
BITMAP
20
e0
2c
32
66
ab
24
00
ENDCHAR
STARTCHAR 306e
ENCODING 12398
SWIDTH 960 0
DWIDTH 8 0
BBX 8 8 0 0
BITMAP
7c
92
92
92
92
92
74
00
ENDCHAR
STARTCHAR 306f
ENCODING 12399
SWIDTH 960 0
DWIDTH 8 0
BBX 8 8 0 0
BITMAP
84
be
84
84
8c
96
4c
00
ENDCHAR
STARTCHAR 3072
ENCODING 12402
SWIDTH 960 0
DWIDTH 8 0
BBX 8 8 0 0
BITMAP
e0
24
46
84
84
84
78
00
ENDCHAR
STARTCHAR 3075
ENCODING 12405
SWIDTH 960 0
DWIDTH 8 0
BBX 8 8 0 0
BITMAP
78
10
20
10
8a
8a
30
00
ENDCHAR
STARTCHAR 3078
ENCODING 12408
SWIDTH 960 0
DWIDTH 8 0
BBX 8 8 0 0
BITMAP
20
50
88
84
02
02
02
00
ENDCHAR
STARTCHAR 307b
ENCODING 12411
SWIDTH 960 0
DWIDTH 8 0
BBX 8 8 0 0
BITMAP
be
84
be
84
8c
92
4c
00
ENDCHAR
STARTCHAR 307e
ENCODING 12414
SWIDTH 960 0
DWIDTH 8 0
BBX 8 8 0 0
BITMAP
10
fe
10
fe
10
70
8e
70
ENDCHAR
STARTCHAR 307f
ENCODING 12415
SWIDTH 960 0
DWIDTH 8 0
BBX 8 8 0 0
BITMAP
f0
12
12
7f
92
92
64
00
ENDCHAR
STARTCHAR 3080
ENCODING 12416
SWIDTH 960 0
DWIDTH 8 0
BBX 8 8 0 0
BITMAP
20
fe
20
63
90
62
1c
00
ENDCHAR
STARTCHAR 3081
ENCODING 12417
SWIDTH 960 0
DWIDTH 8 0
BBX 8 8 0 0
BITMAP
44
44
7c
aa
92
92
64
00
ENDCHAR
STARTCHAR 3082
ENCODING 12418
SWIDTH 960 0
DWIDTH 8 0
BBX 8 8 0 0
BITMAP
40
fe
40
fe
40
42
3c
00
ENDCHAR
STARTCHAR 3083
ENCODING 12419
SWIDTH 960 0
DWIDTH 8 0
BBX 8 8 0 0
BITMAP
00
02
5c
e2
22
24
10
00
ENDCHAR
STARTCHAR 3084
ENCODING 12420
SWIDTH 960 0
DWIDTH 8 0
BBX 8 8 0 0
BITMAP
42
fc
42
42
24
20
20
00
ENDCHAR
STARTCHAR 3085
ENCODING 12421
SWIDTH 960 0
DWIDTH 8 0
BBX 8 8 0 0
BITMAP
00
00
90
bc
d2
94
20
00
ENDCHAR
STARTCHAR 3086
ENCODING 12422
SWIDTH 960 0
DWIDTH 8 0
BBX 8 8 0 0
BITMAP
08
9c
aa
ca
8a
8c
30
00
ENDCHAR
STARTCHAR 3087
ENCODING 12423
SWIDTH 960 0
DWIDTH 8 0
BBX 8 8 0 0
BITMAP
00
10
1c
10
78
90
60
00
ENDCHAR
STARTCHAR 3088
ENCODING 12424
SWIDTH 960 0
DWIDTH 8 0
BBX 8 8 0 0
BITMAP
20
3e
20
60
9c
90
60
00
ENDCHAR
STARTCHAR 3089
ENCODING 12425
SWIDTH 960 0
DWIDTH 8 0
BBX 8 8 0 0
BITMAP
3e
80
9c
e2
82
02
3c
00
ENDCHAR
STARTCHAR 308a
ENCODING 12426
SWIDTH 960 0
DWIDTH 8 0
BBX 8 8 0 0
BITMAP
82
82
82
82
42
04
18
00
ENDCHAR
STARTCHAR 308b
ENCODING 12427
SWIDTH 960 0
DWIDTH 8 0
BBX 8 8 0 0
BITMAP
fe
08
10
7c
82
3a
44
38
ENDCHAR
STARTCHAR 308c
ENCODING 12428
SWIDTH 960 0
DWIDTH 8 0
BBX 8 8 0 0
BITMAP
20
e6
2c
34
24
64
a2
00
ENDCHAR
STARTCHAR 308d
ENCODING 12429
SWIDTH 960 0
DWIDTH 8 0
BBX 8 8 0 0
BITMAP
fe
08
10
7c
82
02
44
38
ENDCHAR
STARTCHAR 308f
ENCODING 12431
SWIDTH 960 0
DWIDTH 8 0
BBX 8 8 0 0
BITMAP
20
ec
32
32
22
62
ac
00
ENDCHAR
STARTCHAR 3092
ENCODING 12434
SWIDTH 960 0
DWIDTH 8 0
BBX 8 8 0 0
BITMAP
10
fe
20
7c
90
40
3e
00
ENDCHAR
STARTCHAR 3093
ENCODING 12435
SWIDTH 960 0
DWIDTH 8 0
BBX 8 8 0 0
BITMAP
10
20
38
44
44
88
8e
00
ENDCHAR
STARTCHAR 309b
ENCODING 12443
SWIDTH 960 0
DWIDTH 8 0
BBX 8 8 0 0
BITMAP
20
90
48
20
00
00
00
00
ENDCHAR
STARTCHAR 309c
ENCODING 12444
SWIDTH 960 0
DWIDTH 8 0
BBX 8 8 0 0
BITMAP
60
90
90
60
00
00
00
00
ENDCHAR
STARTCHAR 30a1
ENCODING 12449
SWIDTH 960 0
DWIDTH 8 0
BBX 8 8 0 0
BITMAP
00
00
fe
02
14
10
20
00
ENDCHAR
STARTCHAR 30a2
ENCODING 12450
SWIDTH 960 0
DWIDTH 8 0
BBX 8 8 0 0
BITMAP
fe
02
14
18
10
20
40
00
ENDCHAR
STARTCHAR 30a3
ENCODING 12451
SWIDTH 960 0
DWIDTH 8 0
BBX 8 8 0 0
BITMAP
00
00
06
08
38
c8
08
00
ENDCHAR
STARTCHAR 30a4
ENCODING 12452
SWIDTH 960 0
DWIDTH 8 0
BBX 8 8 0 0
BITMAP
02
04
18
e8
08
08
08
00
ENDCHAR
STARTCHAR 30a5
ENCODING 12453
SWIDTH 960 0
DWIDTH 8 0
BBX 8 8 0 0
BITMAP
00
00
10
fe
82
04
38
00
ENDCHAR
STARTCHAR 30a6
ENCODING 12454
SWIDTH 960 0
DWIDTH 8 0
BBX 8 8 0 0
BITMAP
10
fe
82
82
02
0c
30
00
ENDCHAR
STARTCHAR 30a7
ENCODING 12455
SWIDTH 960 0
DWIDTH 8 0
BBX 8 8 0 0
BITMAP
00
00
00
7c
10
10
fe
00
ENDCHAR
STARTCHAR 30a8
ENCODING 12456
SWIDTH 960 0
DWIDTH 8 0
BBX 8 8 0 0
BITMAP
00
fe
10
10
10
10
fe
00
ENDCHAR
STARTCHAR 30a9
ENCODING 12457
SWIDTH 960 0
DWIDTH 8 0
BBX 8 8 0 0
BITMAP
00
00
08
fe
18
28
c8
00
ENDCHAR
STARTCHAR 30aa
ENCODING 12458
SWIDTH 960 0
DWIDTH 8 0
BBX 8 8 0 0
BITMAP
08
fe
08
18
28
48
88
00
ENDCHAR
STARTCHAR 30ab
ENCODING 12459
SWIDTH 960 0
DWIDTH 8 0
BBX 8 8 0 0
BITMAP
20
fe
22
22
22
42
84
00
ENDCHAR
STARTCHAR 30ad
ENCODING 12461
SWIDTH 960 0
DWIDTH 8 0
BBX 8 8 0 0
BITMAP
10
fe
10
fe
10
10
10
00
ENDCHAR
STARTCHAR 30af
ENCODING 12463
SWIDTH 960 0
DWIDTH 8 0
BBX 8 8 0 0
BITMAP
00
7e
42
82
02
04
18
00
ENDCHAR
STARTCHAR 30b1
ENCODING 12465
SWIDTH 960 0
DWIDTH 8 0
BBX 8 8 0 0
BITMAP
40
7e
44
84
04
08
30
00
ENDCHAR
STARTCHAR 30b3
ENCODING 12467
SWIDTH 960 0
DWIDTH 8 0
BBX 8 8 0 0
BITMAP
00
fe
02
02
02
02
fe
00
ENDCHAR
STARTCHAR 30b5
ENCODING 12469
SWIDTH 960 0
DWIDTH 8 0
BBX 8 8 0 0
BITMAP
44
fe
44
44
04
08
30
00
ENDCHAR
STARTCHAR 30b7
ENCODING 12471
SWIDTH 960 0
DWIDTH 8 0
BBX 8 8 0 0
BITMAP
00
70
00
e2
02
04
f8
00
ENDCHAR
STARTCHAR 30b9
ENCODING 12473
SWIDTH 960 0
DWIDTH 8 0
BBX 8 8 0 0
BITMAP
00
fe
04
08
18
24
c2
00
ENDCHAR
STARTCHAR 30bb
ENCODING 12475
SWIDTH 960 0
DWIDTH 8 0
BBX 8 8 0 0
BITMAP
40
fe
42
44
48
40
3c
00
ENDCHAR
STARTCHAR 30bd
ENCODING 12477
SWIDTH 960 0
DWIDTH 8 0
BBX 8 8 0 0
BITMAP
00
82
42
22
04
08
70
00
ENDCHAR
STARTCHAR 30bf
ENCODING 12479
SWIDTH 960 0
DWIDTH 8 0
BBX 8 8 0 0
BITMAP
00
7e
42
7e
82
04
18
00
ENDCHAR
STARTCHAR 30c1
ENCODING 12481
SWIDTH 960 0
DWIDTH 8 0
BBX 8 8 0 0
BITMAP
04
78
08
fe
08
10
60
00
ENDCHAR
STARTCHAR 30c3
ENCODING 12483
SWIDTH 960 0
DWIDTH 8 0
BBX 8 8 0 0
BITMAP
00
00
00
a2
a2
04
78
00
ENDCHAR
STARTCHAR 30c4
ENCODING 12484
SWIDTH 960 0
DWIDTH 8 0
BBX 8 8 0 0
BITMAP
00
a2
a2
a2
02
04
78
00
ENDCHAR
STARTCHAR 30c6
ENCODING 12486
SWIDTH 960 0
DWIDTH 8 0
BBX 8 8 0 0
BITMAP
7c
00
fe
08
08
10
60
00
ENDCHAR
STARTCHAR 30c8
ENCODING 12488
SWIDTH 960 0
DWIDTH 8 0
BBX 8 8 0 0
BITMAP
20
20
20
38
26
20
20
00
ENDCHAR
STARTCHAR 30ca
ENCODING 12490
SWIDTH 960 0
DWIDTH 8 0
BBX 8 8 0 0
BITMAP
08
08
fe
08
08
10
60
00
ENDCHAR
STARTCHAR 30cb
ENCODING 12491
SWIDTH 960 0
DWIDTH 8 0
BBX 8 8 0 0
BITMAP
00
7c
00
00
00
00
fe
00
ENDCHAR
STARTCHAR 30cc
ENCODING 12492
SWIDTH 960 0
DWIDTH 8 0
BBX 8 8 0 0
BITMAP
00
fe
02
22
14
08
74
00
ENDCHAR
STARTCHAR 30cd
ENCODING 12493
SWIDTH 960 0
DWIDTH 8 0
BBX 8 8 0 0
BITMAP
10
fe
04
08
34
d2
10
00
ENDCHAR
STARTCHAR 30ce
ENCODING 12494
SWIDTH 960 0
DWIDTH 8 0
BBX 8 8 0 0
BITMAP
04
04
04
04
04
08
30
00
ENDCHAR
STARTCHAR 30cf
ENCODING 12495
SWIDTH 960 0
DWIDTH 8 0
BBX 8 8 0 0
BITMAP
18
04
42
42
42
82
04
00
ENDCHAR
STARTCHAR 30d2
ENCODING 12498
SWIDTH 960 0
DWIDTH 8 0
BBX 8 8 0 0
BITMAP
80
80
fc
80
80
80
7c
00
ENDCHAR
STARTCHAR 30d5
ENCODING 12501
SWIDTH 960 0
DWIDTH 8 0
BBX 8 8 0 0
BITMAP
00
fe
02
02
02
04
78
00
ENDCHAR
STARTCHAR 30d8
ENCODING 12504
SWIDTH 960 0
DWIDTH 8 0
BBX 8 8 0 0
BITMAP
00
20
50
48
84
82
02
00
ENDCHAR
STARTCHAR 30db
ENCODING 12507
SWIDTH 960 0
DWIDTH 8 0
BBX 8 8 0 0
BITMAP
10
fe
10
10
54
92
92
00
ENDCHAR
STARTCHAR 30de
ENCODING 12510
SWIDTH 960 0
DWIDTH 8 0
BBX 8 8 0 0
BITMAP
00
fe
02
02
2c
10
08
00
ENDCHAR
STARTCHAR 30df
ENCODING 12511
SWIDTH 960 0
DWIDTH 8 0
BBX 8 8 0 0
BITMAP
38
06
70
0e
00
f0
0e
00
ENDCHAR
STARTCHAR 30e0
ENCODING 12512
SWIDTH 960 0
DWIDTH 8 0
BBX 8 8 0 0
BITMAP
00
10
10
22
42
fe
02
00
ENDCHAR
STARTCHAR 30e1
ENCODING 12513
SWIDTH 960 0
DWIDTH 8 0
BBX 8 8 0 0
BITMAP
00
04
44
28
10
28
c4
00
ENDCHAR
STARTCHAR 30e2
ENCODING 12514
SWIDTH 960 0
DWIDTH 8 0
BBX 8 8 0 0
BITMAP
00
fe
40
fe
40
40
3e
00
ENDCHAR
STARTCHAR 30e3
ENCODING 12515
SWIDTH 960 0
DWIDTH 8 0
BBX 8 8 0 0
BITMAP
00
00
40
fe
42
24
20
00
ENDCHAR
STARTCHAR 30e4
ENCODING 12516
SWIDTH 960 0
DWIDTH 8 0
BBX 8 8 0 0
BITMAP
40
40
fe
42
24
20
20
00
ENDCHAR
STARTCHAR 30e5
ENCODING 12517
SWIDTH 960 0
DWIDTH 8 0
BBX 8 8 0 0
BITMAP
00
00
00
7c
04
04
fe
00
ENDCHAR
STARTCHAR 30e6
ENCODING 12518
SWIDTH 960 0
DWIDTH 8 0
BBX 8 8 0 0
BITMAP
00
78
08
08
08
08
fe
00
ENDCHAR
STARTCHAR 30e7
ENCODING 12519
SWIDTH 960 0
DWIDTH 8 0
BBX 8 8 0 0
BITMAP
00
00
fe
02
fe
02
fe
00
ENDCHAR
STARTCHAR 30e8
ENCODING 12520
SWIDTH 960 0
DWIDTH 8 0
BBX 8 8 0 0
BITMAP
00
fe
02
fe
02
02
fe
00
ENDCHAR
STARTCHAR 30e9
ENCODING 12521
SWIDTH 960 0
DWIDTH 8 0
BBX 8 8 0 0
BITMAP
fe
00
fe
02
02
04
78
00
ENDCHAR
STARTCHAR 30ea
ENCODING 12522
SWIDTH 960 0
DWIDTH 8 0
BBX 8 8 0 0
BITMAP
44
44
44
44
04
08
70
00
ENDCHAR
STARTCHAR 30eb
ENCODING 12523
SWIDTH 960 0
DWIDTH 8 0
BBX 8 8 0 0
BITMAP
50
50
50
50
52
52
9c
00
ENDCHAR
STARTCHAR 30ec
ENCODING 12524
SWIDTH 960 0
DWIDTH 8 0
BBX 8 8 0 0
BITMAP
00
80
80
82
84
98
e0
00
ENDCHAR
STARTCHAR 30ed
ENCODING 12525
SWIDTH 960 0
DWIDTH 8 0
BBX 8 8 0 0
BITMAP
00
fe
82
82
82
82
fe
00
ENDCHAR
STARTCHAR 30ef
ENCODING 12527
SWIDTH 960 0
DWIDTH 8 0
BBX 8 8 0 0
BITMAP
00
fe
82
82
02
04
18
00
ENDCHAR
STARTCHAR 30f2
ENCODING 12530
SWIDTH 960 0
DWIDTH 8 0
BBX 8 8 0 0
BITMAP
fe
02
02
7e
02
04
38
00
ENDCHAR
STARTCHAR 30f3
ENCODING 12531
SWIDTH 960 0
DWIDTH 8 0
BBX 8 8 0 0
BITMAP
00
e0
00
02
02
04
f8
00
ENDCHAR
STARTCHAR 30fb
ENCODING 12539
SWIDTH 960 0
DWIDTH 8 0
BBX 8 8 0 0
BITMAP
00
00
00
30
78
30
00
00
ENDCHAR
STARTCHAR 30fc
ENCODING 12540
SWIDTH 960 0
DWIDTH 8 0
BBX 8 8 0 0
BITMAP
00
00
00
c0
3e
00
00
00
ENDCHAR
STARTCHAR 4eba
ENCODING 20154
SWIDTH 960 0
DWIDTH 8 0
BBX 8 8 0 0
BITMAP
3c
3c
3c
99
7e
18
3c
e7
ENDCHAR
STARTCHAR 5012
ENCODING 20498
SWIDTH 960 0
DWIDTH 8 0
BBX 8 8 0 0
BITMAP
88
90
d7
7f
7f
d7
90
88
ENDCHAR
STARTCHAR 516b
ENCODING 20843
SWIDTH 960 0
DWIDTH 8 0
BBX 8 8 0 0
BITMAP
11
09
eb
fe
fe
eb
09
11
ENDCHAR
STARTCHAR 5186
ENCODING 20870
SWIDTH 960 0
DWIDTH 8 0
BBX 8 8 0 0
BITMAP
fe
92
92
fe
82
82
86
00
ENDCHAR
STARTCHAR 5206
ENCODING 20998
SWIDTH 960 0
DWIDTH 8 0
BBX 8 8 0 0
BITMAP
10
28
44
ba
24
24
48
00
ENDCHAR
STARTCHAR 53cd
ENCODING 21453
SWIDTH 960 0
DWIDTH 8 0
BBX 8 8 0 0
BITMAP
88
90
a0
c0
c0
a8
98
b8
ENDCHAR
STARTCHAR 571f
ENCODING 22303
SWIDTH 960 0
DWIDTH 8 0
BBX 8 8 0 0
BITMAP
10
10
7c
10
10
10
fe
00
ENDCHAR
STARTCHAR 5c04
ENCODING 23556
SWIDTH 960 0
DWIDTH 8 0
BBX 8 8 0 0
BITMAP
a8
b0
b8
c0
c0
a0
90
88
ENDCHAR
STARTCHAR 5e74
ENCODING 24180
SWIDTH 960 0
DWIDTH 8 0
BBX 8 8 0 0
BITMAP
40
7c
90
7c
50
fe
10
00
ENDCHAR
STARTCHAR 62bc
ENCODING 25276
SWIDTH 960 0
DWIDTH 8 0
BBX 8 8 0 0
BITMAP
38
38
fe
7c
38
10
fe
00
ENDCHAR
STARTCHAR 65e5
ENCODING 26085
SWIDTH 960 0
DWIDTH 8 0
BBX 8 8 0 0
BITMAP
fe
82
82
fe
82
82
fe
00
ENDCHAR
STARTCHAR 661f
ENCODING 26143
SWIDTH 960 0
DWIDTH 8 0
BBX 8 8 0 0
BITMAP
00
23
25
29
f1
29
25
23
ENDCHAR
STARTCHAR 6642
ENCODING 26178
SWIDTH 960 0
DWIDTH 8 0
BBX 8 8 0 0
BITMAP
08
fc
a8
fe
a4
fe
14
00
ENDCHAR
STARTCHAR 6708
ENCODING 26376
SWIDTH 960 0
DWIDTH 8 0
BBX 8 8 0 0
BITMAP
7e
42
7e
42
7e
42
82
00
ENDCHAR
STARTCHAR 6728
ENCODING 26408
SWIDTH 960 0
DWIDTH 8 0
BBX 8 8 0 0
BITMAP
10
fe
10
38
54
54
92
00
ENDCHAR
STARTCHAR 672a
ENCODING 26410
SWIDTH 960 0
DWIDTH 8 0
BBX 8 8 0 0
BITMAP
00
18
24
7e
ff
7e
24
00
ENDCHAR
STARTCHAR 6a2a
ENCODING 27178
SWIDTH 960 0
DWIDTH 8 0
BBX 8 8 0 0
BITMAP
e0
e7
47
ba
ba
47
e7
e0
ENDCHAR
STARTCHAR 6c34
ENCODING 27700
SWIDTH 960 0
DWIDTH 8 0
BBX 8 8 0 0
BITMAP
10
f2
14
38
58
94
92
00
ENDCHAR
STARTCHAR 6c60
ENCODING 27744
SWIDTH 960 0
DWIDTH 8 0
BBX 8 8 0 0
BITMAP
08
08
3e
00
00
3e
08
08
ENDCHAR
STARTCHAR 706b
ENCODING 28779
SWIDTH 960 0
DWIDTH 8 0
BBX 8 8 0 0
BITMAP
10
92
92
10
28
44
82
00
ENDCHAR
STARTCHAR 751f
ENCODING 29983
SWIDTH 960 0
DWIDTH 8 0
BBX 8 8 0 0
BITMAP
10
50
fe
90
7c
10
fe
00
ENDCHAR
STARTCHAR 79d2
ENCODING 31186
SWIDTH 960 0
DWIDTH 8 0
BBX 8 8 0 0
BITMAP
70
24
fe
2e
76
a4
28
00
ENDCHAR
STARTCHAR 86c7
ENCODING 34503
SWIDTH 960 0
DWIDTH 8 0
BBX 8 8 0 0
BITMAP
e0
e0
e0
24
4a
8a
92
61
ENDCHAR
STARTCHAR 885b
ENCODING 34907
SWIDTH 960 0
DWIDTH 8 0
BBX 8 8 0 0
BITMAP
00
c4
a4
94
8f
94
a4
c4
ENDCHAR
STARTCHAR 8eca
ENCODING 36554
SWIDTH 960 0
DWIDTH 8 0
BBX 8 8 0 0
BITMAP
66
7e
66
18
18
db
e7
db
ENDCHAR
STARTCHAR 9006
ENCODING 36870
SWIDTH 960 0
DWIDTH 8 0
BBX 8 8 0 0
BITMAP
e7
3c
18
7e
99
3c
3c
3c
ENDCHAR
STARTCHAR 91d1
ENCODING 37329
SWIDTH 960 0
DWIDTH 8 0
BBX 8 8 0 0
BITMAP
10
28
7c
ba
54
38
fe
00
ENDCHAR
STARTCHAR 96fb
ENCODING 38651
SWIDTH 960 0
DWIDTH 8 0
BBX 8 8 0 0
BITMAP
00
00
24
24
e7
24
24
00
ENDCHAR
STARTCHAR ff01
ENCODING 65281
SWIDTH 960 0
DWIDTH 8 0
BBX 8 8 0 0
BITMAP
10
20
20
10
08
04
04
08
ENDCHAR
STARTCHAR ff0c
ENCODING 65292
SWIDTH 960 0
DWIDTH 8 0
BBX 8 8 0 0
BITMAP
00
00
00
00
80
40
20
00
ENDCHAR
STARTCHAR ff0e
ENCODING 65294
SWIDTH 960 0
DWIDTH 8 0
BBX 8 8 0 0
BITMAP
00
00
00
18
18
00
00
00
ENDCHAR
STARTCHAR ff0f
ENCODING 65295
SWIDTH 960 0
DWIDTH 8 0
BBX 8 8 0 0
BITMAP
01
02
04
08
10
20
40
80
ENDCHAR
STARTCHAR ff11
ENCODING 65297
SWIDTH 960 0
DWIDTH 8 0
BBX 8 8 0 0
BITMAP
00
00
00
00
00
00
ff
00
ENDCHAR
STARTCHAR ff12
ENCODING 65298
SWIDTH 960 0
DWIDTH 8 0
BBX 8 8 0 0
BITMAP
00
00
00
00
00
ff
00
00
ENDCHAR
STARTCHAR ff13
ENCODING 65299
SWIDTH 960 0
DWIDTH 8 0
BBX 8 8 0 0
BITMAP
00
00
00
ff
00
00
00
00
ENDCHAR
STARTCHAR ff14
ENCODING 65300
SWIDTH 960 0
DWIDTH 8 0
BBX 8 8 0 0
BITMAP
00
00
ff
00
00
00
00
00
ENDCHAR
STARTCHAR ff15
ENCODING 65301
SWIDTH 960 0
DWIDTH 8 0
BBX 8 8 0 0
BITMAP
00
ff
00
00
00
00
00
00
ENDCHAR
STARTCHAR ff1c
ENCODING 65308
SWIDTH 960 0
DWIDTH 8 0
BBX 8 8 0 0
BITMAP
00
70
88
44
23
20
40
80
ENDCHAR
STARTCHAR ff1d
ENCODING 65309
SWIDTH 960 0
DWIDTH 8 0
BBX 8 8 0 0
BITMAP
00
ff
00
81
42
42
81
00
ENDCHAR
STARTCHAR ff1e
ENCODING 65310
SWIDTH 960 0
DWIDTH 8 0
BBX 8 8 0 0
BITMAP
00
0e
11
22
c4
04
02
01
ENDCHAR
STARTCHAR ff39
ENCODING 65337
SWIDTH 960 0
DWIDTH 8 0
BBX 8 8 0 0
BITMAP
80
40
20
10
1f
20
40
80
ENDCHAR
STARTCHAR ff3c
ENCODING 65340
SWIDTH 960 0
DWIDTH 8 0
BBX 8 8 0 0
BITMAP
80
40
20
10
08
04
02
01
ENDCHAR
STARTCHAR ffe1
ENCODING 65505
SWIDTH 960 0
DWIDTH 8 0
BBX 8 8 0 0
BITMAP
1c
20
20
78
20
20
fc
00
ENDCHAR
STARTCHAR ffe3
ENCODING 65507
SWIDTH 960 0
DWIDTH 8 0
BBX 8 8 0 0
BITMAP
ff
00
00
00
00
00
00
00
ENDCHAR
STARTCHAR ffe5
ENCODING 65509
SWIDTH 960 0
DWIDTH 8 0
BBX 8 8 0 0
BITMAP
82
44
28
fe
10
fe
10
00
ENDCHAR
ENDFONT
